<svg width="600" height="750" viewBox="0 0 600 750" fill="none" xmlns="http://www.w3.org/2000/svg">
  <rect width="600" height="750" rx="36" fill="#5D3221"/>
  <rect width="600" height="750" rx="36" fill="url(#a)"/>
  <circle cx="457" cy="130" r="88" fill="#F3D9A9" fill-opacity="0.22"/>
  <rect x="44" y="44" width="512" height="662" rx="28" fill="#FFF5E8" fill-opacity="0.08" stroke="#FFF5E8" stroke-opacity="0.14"/>
  <circle cx="299" cy="257" r="92" fill="#F0C57D"/>
  <path d="M143 543C143 452.977 215.977 380 306 380H332C422.023 380 495 452.977 495 543V602H143V543Z" fill="#FAF2E6"/>
  <circle cx="183" cy="414" r="58" fill="#B78261"/>
  <path d="M96 608C96 541.174 150.174 487 217 487V487C283.826 487 338 541.174 338 608V626H96V608Z" fill="#8A5A43"/>
  <path d="M132 146C132 109.549 161.549 80 198 80C234.451 80 264 109.549 264 146C264 182.451 234.451 212 198 212C173.557 212 152.216 198.722 140.672 178.991C154.211 182.149 168.848 181.92 182.85 177.392C165.007 166.467 153.082 146.798 153.082 124.34C153.082 108.395 159.1 93.8535 168.995 82.8606C178.038 80.2846 187.587 79 197.441 79L198 79V146Z" fill="#FAE8C7"/>
  <defs>
    <linearGradient id="a" x1="300" y1="0" x2="300" y2="750" gradientUnits="userSpaceOnUse">
      <stop stop-color="#8A4A2B"/>
      <stop offset="1" stop-color="#5C301F"/>
    </linearGradient>
  </defs>
</svg>
