<svg width="600" height="750" viewBox="0 0 600 750" fill="none" xmlns="http://www.w3.org/2000/svg">
  <rect width="600" height="750" rx="36" fill="#153A31"/>
  <rect width="600" height="750" rx="36" fill="url(#a)"/>
  <circle cx="473" cy="121" r="94" fill="#E7B860" fill-opacity="0.28"/>
  <rect x="42" y="44" width="516" height="662" rx="28" fill="#FFF6EA" fill-opacity="0.06" stroke="#FFF6EA" stroke-opacity="0.18"/>
  <circle cx="301" cy="282" r="94" fill="#F1CB87"/>
  <path d="M170 573C170 473.589 250.589 393 350 393H380C479.411 393 560 473.589 560 573V622H170V573Z" fill="#FFF6EA"/>
  <path d="M68 593C68 515.68 130.68 453 208 453H230C307.32 453 370 515.68 370 593V622H68V593Z" fill="#6F9487"/>
  <circle cx="219" cy="394" r="74" fill="#BCD0C9"/>
  <path d="M130 129H213" stroke="#FAE8C7" stroke-width="18" stroke-linecap="round"/>
  <path d="M171.5 88V170" stroke="#FAE8C7" stroke-width="18" stroke-linecap="round"/>
  <defs>
    <linearGradient id="a" x1="300" y1="0" x2="300" y2="750" gradientUnits="userSpaceOnUse">
      <stop stop-color="#225648"/>
      <stop offset="1" stop-color="#102720"/>
    </linearGradient>
  </defs>
</svg>
